<svg xmlns="http://www.w3.org/2000/svg" width="23.667" height="23.667" viewBox="0 0 23.667 23.667">
  <path id="landmark-solid" d="M23.187,4.258,12.353.094a1.477,1.477,0,0,0-1.039,0L.48,4.258A.74.74,0,0,0,0,4.95V6.656a.739.739,0,0,0,.74.74H22.927a.739.739,0,0,0,.74-.74V4.95A.74.74,0,0,0,23.187,4.258ZM2.958,8.875v7.4h-.74a.739.739,0,0,0-.74.74v2.219H22.187V17.01a.739.739,0,0,0-.74-.74h-.74v-7.4H17.75v7.4H13.312v-7.4H10.354v7.4H5.917v-7.4ZM22.927,20.708H.74a.739.739,0,0,0-.74.74v1.479a.739.739,0,0,0,.74.74H22.927a.739.739,0,0,0,.74-.74V21.448A.739.739,0,0,0,22.927,20.708Z" transform="translate(0 0)" fill="#fff"/>
</svg>
